<?xml version="1.0" standalone="no"?>
<!DOCTYPE svg PUBLIC "-//W3C//DTD SVG 20010904//EN"
 "http://www.w3.org/TR/2001/REC-SVG-20010904/DTD/svg10.dtd">
<svg version="1.0" xmlns="http://www.w3.org/2000/svg"
 width="645.000000pt" height="446.000000pt" viewBox="0 0 645.000000 446.000000"
 preserveAspectRatio="xMidYMid meet">

<g transform="translate(0.000000,446.000000) scale(0.100000,-0.100000)"
fill="#000000" stroke="none">
<path d="M2067 3865 c442 -84 776 -322 962 -685 105 -205 144 -367 144 -600 1
-231 -45 -418 -147 -604 l-43 -80 91 -78 c50 -44 92 -83 94 -87 2 -5 -68 -85
-154 -177 -86 -93 -160 -173 -164 -178 -5 -5 -56 30 -113 78 l-105 86 -85 -50
c-104 -61 -250 -121 -382 -156 -55 -14 -102 -28 -104 -30 -2 -2 377 -4 844 -4
l848 0 -7 415 -7 415 243 0 244 0 224 -388 c123 -213 232 -399 242 -414 l19
-28 295 0 c162 0 294 3 294 6 0 8 -189 313 -392 633 -92 145 -168 267 -168
271 0 4 19 15 43 25 122 48 274 180 345 298 95 157 135 306 135 497 -1 255
-80 470 -233 633 -95 102 -195 164 -325 203 -56 17 -140 18 -1410 20 l-1350 3
122 -24z m2418 -524 c63 -36 130 -108 158 -169 29 -66 35 -208 12 -288 -36
-123 -105 -221 -180 -255 -36 -17 -73 -19 -382 -19 l-343 0 0 380 0 380 343 0
342 0 50 -29z"/>
<path d="M1760 3453 c-143 -24 -307 -100 -417 -193 -128 -107 -229 -269 -274
-436 -31 -113 -31 -307 0 -419 84 -311 318 -542 624 -615 112 -27 282 -27 394
0 75 18 213 72 213 84 0 2 -28 28 -62 56 -35 29 -63 56 -63 60 0 4 70 72 155
150 85 79 167 154 183 168 l27 26 38 -35 c72 -68 69 -68 96 -8 55 125 77 298
57 437 -63 428 -421 737 -848 731 -54 -1 -109 -4 -123 -6z"/>
<path d="M3857 1124 c-4 -4 -7 -16 -7 -26 0 -15 6 -19 28 -16 19 2 27 9 27 23
0 20 -33 33 -48 19z"/>
<path d="M1153 1076 c-89 -40 -124 -219 -51 -270 20 -14 20 -14 -1 -21 -12 -3
-21 -13 -21 -21 0 -20 29 -30 49 -17 12 7 26 5 53 -9 23 -12 51 -18 75 -16 32
3 38 7 41 28 3 24 1 25 -55 22 l-58 -2 43 21 c80 40 129 174 84 229 -17 20
-24 23 -39 14 -27 -17 -29 -68 -3 -94 19 -19 20 -25 10 -51 -16 -39 -65 -79
-96 -79 -81 0 -97 152 -23 214 29 25 47 31 77 27 8 -2 12 5 10 16 -4 23 -52
28 -95 9z"/>
<path d="M2571 1080 c-10 -7 -41 -268 -34 -286 3 -8 15 -14 26 -12 17 3 21 11
22 56 1 29 4 54 6 56 2 2 18 2 35 -1 26 -4 35 -13 55 -56 24 -52 50 -70 72
-48 7 7 6 16 -5 28 -9 10 -22 31 -31 48 -14 28 -14 31 14 63 38 43 40 102 5
137 -21 21 -32 24 -91 22 -37 -1 -70 -4 -74 -7z m117 -36 c53 -37 10 -124 -61
-124 l-30 0 7 57 c10 82 34 102 84 67z"/>
<path d="M4033 1072 c-7 -4 -11 -21 -10 -37 2 -24 -2 -31 -20 -33 -28 -4 -31
-32 -4 -32 18 0 18 -3 5 -52 -16 -62 -18 -124 -4 -133 6 -3 19 -3 30 0 16 5
18 10 11 24 -6 10 -8 26 -6 37 2 10 9 45 15 77 11 54 13 57 41 57 19 0 29 5
29 15 0 9 -9 15 -23 15 -20 0 -23 4 -19 35 3 29 1 35 -14 35 -11 0 -24 -4 -31
-8z"/>
<path d="M5213 1072 c-7 -4 -11 -21 -10 -37 2 -24 -2 -31 -20 -33 -28 -4 -31
-32 -4 -32 18 0 18 -3 5 -52 -16 -62 -18 -124 -4 -133 6 -3 19 -3 30 0 15 5
18 10 11 23 -9 18 -7 42 11 125 9 43 13 47 39 47 19 0 29 5 29 15 0 9 -9 15
-23 15 -20 0 -23 4 -19 35 3 29 1 35 -14 35 -11 0 -24 -4 -31 -8z"/>
<path d="M1405 1032 c-5 -4 -11 -23 -11 -42 -1 -19 -5 -67 -9 -106 -7 -67 -6
-72 16 -88 31 -21 61 -20 92 4 l26 20 6 -20 c3 -11 15 -20 26 -20 15 0 19 7
19 38 0 20 9 75 20 121 20 90 19 101 -8 101 -28 0 -48 -18 -36 -30 7 -7 6 -33
-6 -86 -16 -79 -41 -114 -81 -114 -35 0 -41 34 -24 126 9 46 13 89 10 94 -7
12 -26 13 -40 2z"/>
<path d="M1744 1026 c-64 -28 -97 -110 -74 -181 12 -37 51 -65 92 -65 37 0 86
36 108 79 36 72 20 165 -25 147 -26 -9 -29 -37 -9 -73 18 -34 18 -36 -1 -71
-34 -63 -98 -69 -119 -10 -22 62 28 151 93 164 17 4 28 10 25 15 -8 13 -54 10
-90 -5z"/>
<path d="M1995 1032 c-5 -4 -10 -25 -11 -47 0 -22 -6 -73 -14 -113 -9 -52 -10
-76 -2 -84 19 -19 42 -1 42 34 0 78 49 168 91 168 23 0 36 27 21 42 -16 16
-49 0 -70 -34 l-20 -32 1 34 c2 34 -16 49 -38 32z"/>
<path d="M2160 1023 c0 -29 20 -43 63 -43 21 0 37 -4 35 -8 -12 -31 -85 -132
-95 -132 -15 0 -32 -31 -26 -47 5 -15 35 -17 49 -4 5 5 30 5 61 -2 57 -12 83
-1 83 35 0 16 -3 17 -21 7 -19 -10 -89 -5 -89 7 0 12 102 154 110 154 16 0 11
40 -5 47 -9 3 -25 -3 -35 -12 -20 -18 -45 -15 -116 12 -9 3 -14 -2 -14 -14z"/>
<path d="M2890 1022 c-78 -41 -104 -169 -45 -219 30 -26 61 -29 109 -9 36 15
55 51 38 68 -13 13 -32 2 -32 -17 0 -34 -73 -47 -90 -16 -18 34 -12 61 13 61
38 0 97 20 118 41 26 26 25 74 -3 93 -30 21 -65 20 -108 -2z m90 -42 c0 -29
-33 -58 -75 -66 -20 -3 -38 -5 -39 -3 -10 10 28 77 51 91 32 19 63 8 63 -22z"/>
<path d="M3150 1021 c-48 -25 -83 -93 -77 -149 8 -72 60 -106 130 -82 49 16
74 80 31 80 -8 0 -14 -6 -14 -14 0 -41 -71 -62 -90 -27 -23 43 -4 127 37 164
18 16 22 16 33 2 17 -20 59 -19 67 1 8 21 -22 44 -57 44 -14 0 -41 -8 -60 -19z"/>
<path d="M3355 1032 c-5 -4 -10 -25 -11 -47 0 -22 -6 -73 -14 -113 -9 -52 -10
-76 -2 -84 19 -19 42 -1 42 34 0 78 49 168 91 168 23 0 36 27 21 42 -16 16
-49 0 -70 -34 l-20 -32 1 34 c2 34 -16 49 -38 32z"/>
<path d="M3545 1032 c-5 -4 -11 -23 -11 -42 -1 -19 -5 -67 -9 -106 -7 -67 -6
-72 16 -88 31 -21 61 -20 92 4 l26 20 6 -20 c3 -11 15 -20 26 -20 15 0 19 7
19 38 0 20 9 75 20 121 20 90 19 101 -8 101 -28 0 -48 -18 -36 -30 7 -7 6 -33
-6 -86 -16 -79 -41 -114 -81 -114 -35 0 -41 34 -24 126 9 46 13 89 10 94 -7
12 -26 13 -40 2z"/>
<path d="M3843 1033 c-8 -3 -11 -14 -7 -27 3 -12 -2 -62 -11 -110 -18 -96 -16
-116 15 -116 16 0 20 7 20 38 0 20 7 68 15 107 24 111 19 129 -32 108z"/>
<path d="M4180 1030 c-10 -6 -12 -12 -4 -20 7 -7 4 -39 -9 -105 -20 -103 -18
-125 11 -125 17 0 20 9 24 58 5 66 32 127 71 156 25 19 28 19 43 4 16 -15 15
-23 -1 -106 -18 -95 -16 -112 14 -112 15 0 19 10 23 58 5 66 32 127 71 156 25
19 28 19 44 4 15 -16 15 -23 -1 -101 -18 -91 -14 -117 15 -117 15 0 19 7 19
31 0 16 7 62 16 100 9 39 13 81 10 94 -12 49 -99 40 -134 -14 l-17 -25 -5 28
c-10 56 -69 60 -117 8 l-24 -26 3 29 c2 24 -1 31 -17 33 -11 1 -27 -2 -35 -8z"/>
<path d="M4660 1022 c-78 -41 -104 -169 -45 -219 30 -26 61 -29 109 -9 36 15
55 51 38 68 -13 13 -32 2 -32 -17 0 -34 -73 -47 -90 -16 -18 34 -12 61 13 61
38 0 97 20 118 41 26 26 25 74 -3 93 -30 21 -65 20 -108 -2z m90 -42 c0 -29
-33 -58 -75 -66 -20 -3 -38 -5 -40 -2 -10 9 35 85 56 95 30 13 59 0 59 -27z"/>
<path d="M4880 1030 c-10 -6 -12 -12 -4 -20 7 -7 4 -39 -9 -105 -20 -101 -18
-129 10 -123 14 2 20 18 25 62 9 67 44 135 81 155 41 22 51 7 42 -68 -14 -121
-13 -146 10 -146 21 0 21 1 41 167 9 73 -4 92 -55 84 -19 -3 -47 -18 -63 -33
l-29 -28 3 30 c2 24 -1 31 -17 33 -11 1 -27 -2 -35 -8z"/>
</g>
</svg>
